<svg width="24" height="32" viewBox="0 0 24 32" fill="none" xmlns="http://www.w3.org/2000/svg">
<path fill-rule="evenodd" clip-rule="evenodd" d="M0 2C0 0.895431 0.895431 0 2 0H16.653L24 8.12746V30C24 31.1046 23.1046 32 22 32H2C0.89543 32 0 31.1046 0 30V2Z" fill="#4D64FF"/>
<path fill-rule="evenodd" clip-rule="evenodd" d="M16.5518 0L24 8.22857H20.5518C18.3426 8.22857 16.5518 6.43771 16.5518 4.22857V0Z" fill="#9EABFF"/>
<path d="M2.87684 15.4H5.15684C5.74884 15.4 6.27151 15.52 6.72484 15.76C7.17818 15.9947 7.53018 16.3253 7.78084 16.752C8.03151 17.1733 8.15684 17.656 8.15684 18.2C8.15684 18.744 8.03151 19.2293 7.78084 19.656C7.53018 20.0773 7.17818 20.408 6.72484 20.648C6.27151 20.8827 5.74884 21 5.15684 21H2.87684V15.4ZM5.12484 20.488C5.61551 20.488 6.04484 20.392 6.41284 20.2C6.78084 20.0027 7.06618 19.7333 7.26884 19.392C7.47151 19.0453 7.57284 18.648 7.57284 18.2C7.57284 17.752 7.47151 17.3573 7.26884 17.016C7.06618 16.6693 6.78084 16.4 6.41284 16.208C6.04484 16.0107 5.61551 15.912 5.12484 15.912H3.46884V20.488H5.12484ZM11.9342 21.048C11.3796 21.048 10.8756 20.9253 10.4222 20.68C9.97422 20.4293 9.62222 20.088 9.36622 19.656C9.11555 19.224 8.99022 18.7387 8.99022 18.2C8.99022 17.6613 9.11555 17.176 9.36622 16.744C9.62222 16.312 9.97422 15.9733 10.4222 15.728C10.8756 15.4773 11.3796 15.352 11.9342 15.352C12.4889 15.352 12.9876 15.4747 13.4302 15.72C13.8782 15.9653 14.2302 16.3067 14.4862 16.744C14.7422 17.176 14.8702 17.6613 14.8702 18.2C14.8702 18.7387 14.7422 19.2267 14.4862 19.664C14.2302 20.096 13.8782 20.4347 13.4302 20.68C12.9876 20.9253 12.4889 21.048 11.9342 21.048ZM11.9342 20.52C12.3769 20.52 12.7769 20.4213 13.1342 20.224C13.4916 20.0213 13.7716 19.744 13.9742 19.392C14.1769 19.0347 14.2782 18.6373 14.2782 18.2C14.2782 17.7627 14.1769 17.368 13.9742 17.016C13.7716 16.6587 13.4916 16.3813 13.1342 16.184C12.7769 15.9813 12.3769 15.88 11.9342 15.88C11.4916 15.88 11.0889 15.9813 10.7262 16.184C10.3689 16.3813 10.0862 16.6587 9.87822 17.016C9.67555 17.368 9.57422 17.7627 9.57422 18.2C9.57422 18.6373 9.67555 19.0347 9.87822 19.392C10.0862 19.744 10.3689 20.0213 10.7262 20.224C11.0889 20.4213 11.4916 20.52 11.9342 20.52ZM18.6292 21.048C18.0745 21.048 17.5732 20.9253 17.1252 20.68C16.6825 20.4347 16.3332 20.096 16.0772 19.664C15.8265 19.2267 15.7012 18.7387 15.7012 18.2C15.7012 17.6613 15.8265 17.176 16.0772 16.744C16.3332 16.3067 16.6852 15.9653 17.1332 15.72C17.5812 15.4747 18.0825 15.352 18.6372 15.352C19.0532 15.352 19.4372 15.4213 19.7892 15.56C20.1412 15.6987 20.4398 15.9013 20.6852 16.168L20.3092 16.544C19.8718 16.1013 19.3198 15.88 18.6532 15.88C18.2105 15.88 17.8078 15.9813 17.4452 16.184C17.0825 16.3867 16.7972 16.664 16.5892 17.016C16.3865 17.368 16.2852 17.7627 16.2852 18.2C16.2852 18.6373 16.3865 19.032 16.5892 19.384C16.7972 19.736 17.0825 20.0133 17.4452 20.216C17.8078 20.4187 18.2105 20.52 18.6532 20.52C19.3252 20.52 19.8772 20.296 20.3092 19.848L20.6852 20.224C20.4398 20.4907 20.1385 20.696 19.7812 20.84C19.4292 20.9787 19.0452 21.048 18.6292 21.048Z" fill="white"/>
</svg>
