<svg width="24" height="32" viewBox="0 0 24 32" fill="none" xmlns="http://www.w3.org/2000/svg">
<path fill-rule="evenodd" clip-rule="evenodd" d="M0 2C0 0.895431 0.895431 0 2 0H16.653L24 8.12746V30C24 31.1046 23.1046 32 22 32H2C0.89543 32 0 31.1046 0 30V2Z" fill="#FE5339"/>
<path fill-rule="evenodd" clip-rule="evenodd" d="M16.5518 0L24 8.22857H20.5518C18.3426 8.22857 16.5518 6.43771 16.5518 4.22857V0Z" fill="#FF9282"/>
<path d="M5.84003 15.4C6.5547 15.4 7.1147 15.5707 7.52003 15.912C7.92536 16.2533 8.12803 16.7227 8.12803 17.32C8.12803 17.9173 7.92536 18.3867 7.52003 18.728C7.1147 19.064 6.5547 19.232 5.84003 19.232H4.33603V21H3.74403V15.4H5.84003ZM5.82403 18.712C6.3787 18.712 6.8027 18.592 7.09603 18.352C7.38936 18.1067 7.53603 17.7627 7.53603 17.32C7.53603 16.8667 7.38936 16.52 7.09603 16.28C6.8027 16.0347 6.3787 15.912 5.82403 15.912H4.33603V18.712H5.82403ZM9.40809 15.4H11.6881C12.2801 15.4 12.8028 15.52 13.2561 15.76C13.7094 15.9947 14.0614 16.3253 14.3121 16.752C14.5628 17.1733 14.6881 17.656 14.6881 18.2C14.6881 18.744 14.5628 19.2293 14.3121 19.656C14.0614 20.0773 13.7094 20.408 13.2561 20.648C12.8028 20.8827 12.2801 21 11.6881 21H9.40809V15.4ZM11.6561 20.488C12.1468 20.488 12.5761 20.392 12.9441 20.2C13.3121 20.0027 13.5974 19.7333 13.8001 19.392C14.0028 19.0453 14.1041 18.648 14.1041 18.2C14.1041 17.752 14.0028 17.3573 13.8001 17.016C13.5974 16.6693 13.3121 16.4 12.9441 16.208C12.5761 16.0107 12.1468 15.912 11.6561 15.912H10.0001V20.488H11.6561ZM16.6095 15.912V18.112H19.5055V18.624H16.6095V21H16.0175V15.4H19.8575V15.912H16.6095Z" fill="white"/>
</svg>
