<svg width="14" height="17" viewBox="0 0 14 17" fill="none" xmlns="http://www.w3.org/2000/svg">
<path fill-rule="evenodd" clip-rule="evenodd" d="M9.33331 4.84C9.33331 3.21 8.28831 1.889 7.00031 1.889C5.71131 1.889 4.66631 3.21 4.66631 4.84V5.979H9.33331V4.84ZM6.3003 11.219V13.451C6.3003 13.843 6.61331 14.16 7.00031 14.16C7.3863 14.16 7.7003 13.843 7.7003 13.451V11.219C8.10931 11.05 8.4003 10.647 8.4003 10.171C8.4003 9.545 7.8983 9.039 7.2803 9.039H6.7203C6.10131 9.039 5.60031 9.545 5.60031 10.171C5.60031 10.647 5.89031 11.05 6.3003 11.219ZM12.1333 17H1.86631C0.835305 17 0.000305176 16.154 0.000305176 15.111V7.868C0.000305176 6.825 0.835305 5.979 1.86631 5.979H2.80031V4.722C2.80031 2.114 4.68031 0 7.00031 0C9.31931 0 11.2003 2.114 11.2003 4.722V5.979H12.1333C13.1643 5.979 14.0003 6.825 14.0003 7.868V15.111C14.0003 16.154 13.1643 17 12.1333 17Z" fill="#2945FF"/>
</svg>
