<svg width="18" height="12" viewBox="0 0 18 12" fill="none" xmlns="http://www.w3.org/2000/svg">
<path fill-rule="evenodd" clip-rule="evenodd" d="M10.5648 6.254L16.7528 1.061C17.0518 0.763 17.1988 0.387 17.2698 0H9.00481H1.02081C1.08881 0.398 1.23181 0.783 1.52181 1.09L7.49281 6.426C7.90681 6.865 8.46281 7.168 9.00481 7.125C9.56381 7.167 10.1368 6.682 10.5648 6.254ZM0.0103128 10.001C0.0103128 11.105 0.905313 12.001 2.00931 12.001H16.0003C17.1043 12.001 17.9993 11.105 17.9993 10.001V3.001C17.9993 2.328 17.9933 0.852 17.6243 0.376C17.5373 0.625 16.9523 1.862 16.7533 2.062L10.5643 7.254C10.1363 7.682 9.56431 7.916 9.00531 7.876C8.46231 7.918 7.90731 7.866 7.49231 7.426L1.52231 2.091C1.29131 1.845 0.466313 0.686 0.385313 0.376C-0.0291673 0.607697 -0.00843567 1.80702 0.00578791 2.62986C0.00813929 2.76589 0.0103128 2.89162 0.0103128 3.001V10.001Z" fill="#2945FF"/>
</svg>
