<svg width="19" height="19" viewBox="0 0 19 19" fill="none" xmlns="http://www.w3.org/2000/svg">
<path fill-rule="evenodd" clip-rule="evenodd" d="M9.5 18C14.1944 18 18 14.1944 18 9.5C18 4.80558 14.1944 1 9.5 1C4.80558 1 1 4.80558 1 9.5C1 14.1944 4.80558 18 9.5 18Z" stroke="#B8BFD3"/>
<path d="M8.342 10.437C8.342 10.0777 8.40067 9.755 8.518 9.469C8.63533 9.183 8.87733 8.93367 9.244 8.721C9.354 8.655 9.48967 8.58167 9.651 8.501C9.81233 8.413 9.97 8.31033 10.124 8.193C10.278 8.07567 10.4063 7.94 10.509 7.786C10.619 7.62467 10.674 7.44133 10.674 7.236C10.674 7.082 10.6447 6.94633 10.586 6.829C10.5273 6.71167 10.4503 6.61267 10.355 6.532C10.2597 6.45133 10.146 6.39267 10.014 6.356C9.88933 6.312 9.761 6.29 9.629 6.29C9.46767 6.29 9.321 6.31933 9.189 6.378C9.057 6.42933 8.936 6.499 8.826 6.587C8.72333 6.66767 8.628 6.763 8.54 6.873C8.45933 6.97567 8.38967 7.07467 8.331 7.17L7.374 6.51C7.46933 6.28267 7.594 6.081 7.748 5.905C7.90933 5.729 8.089 5.58233 8.287 5.465C8.49233 5.34033 8.71233 5.24867 8.947 5.19C9.18167 5.124 9.42367 5.091 9.673 5.091C9.95167 5.091 10.2267 5.13133 10.498 5.212C10.7693 5.29267 11.0113 5.421 11.224 5.597C11.444 5.773 11.62 6.00033 11.752 6.279C11.8913 6.55033 11.961 6.87667 11.961 7.258C11.961 7.49267 11.9317 7.70167 11.873 7.885C11.8217 8.061 11.7447 8.22233 11.642 8.369C11.5393 8.51567 11.4183 8.64767 11.279 8.765C11.1397 8.88233 10.982 8.996 10.806 9.106C10.6593 9.194 10.5127 9.27833 10.366 9.359C10.2193 9.43967 10.0837 9.53133 9.959 9.634C9.84167 9.72933 9.74267 9.843 9.662 9.975C9.58867 10.0997 9.552 10.2537 9.552 10.437H8.342ZM8.364 13V11.482H9.585V13H8.364Z" fill="#B8BFD3"/>
</svg>
